<?xml version="1.0" encoding="UTF-8" standalone="no"?><svg xmlns="http://www.w3.org/2000/svg" xmlns:xlink="http://www.w3.org/1999/xlink" contentScriptType="application/ecmascript" contentStyleType="text/css" height="759px" preserveAspectRatio="none" style="width:1419px;height:759px;" version="1.1" viewBox="0 0 1419 759" width="1419px" zoomAndPan="magnify"><defs><filter height="300%" id="f1ky88rjosx1k" width="300%" x="-1" y="-1"><feGaussianBlur result="blurOut" stdDeviation="2.0"/><feColorMatrix in="blurOut" result="blurOut2" type="matrix" values="0 0 0 0 0 0 0 0 0 0 0 0 0 0 0 0 0 0 .4 0"/><feOffset dx="4.0" dy="4.0" in="blurOut2" result="blurOut3"/><feBlend in="SourceGraphic" in2="blurOut3" mode="normal"/></filter></defs><g><!--MD5=[8413f8248b2da7966d2de021109ec289]
class users--><rect fill="#FEFECE" filter="url(#f1ky88rjosx1k)" height="73.6094" id="users" style="stroke: #A80036; stroke-width: 1.5;" width="67" x="757" y="20.5"/><ellipse cx="772" cy="36.5" fill="#ADD1B2" rx="11" ry="11" style="stroke: #A80036; stroke-width: 1.0;"/><path d="M776.1094,42.5 L768.3906,42.5 L768.3906,30.1094 L776.1094,30.1094 L776.1094,32.2656 L770.8438,32.2656 L770.8438,34.9375 L775.6094,34.9375 L775.6094,37.0938 L770.8438,37.0938 L770.8438,40.3438 L776.1094,40.3438 L776.1094,42.5 Z "/><text fill="#000000" font-family="sans-serif" font-size="12" lengthAdjust="spacingAndGlyphs" textLength="35" x="786" y="40.6543">users</text><line style="stroke: #A80036; stroke-width: 1.5;" x1="758" x2="823" y1="52.5" y2="52.5"/><ellipse cx="768" cy="63.5" fill="#000000" rx="3" ry="3" style="stroke: #000000; stroke-width: 1.0;"/><text fill="#000000" font-family="sans-serif" font-size="11" lengthAdjust="spacingAndGlyphs" textLength="41" x="777" y="66.7104">id UUID</text><text fill="#000000" font-family="sans-serif" font-size="11" lengthAdjust="spacingAndGlyphs" textLength="31" x="777" y="79.5151">email</text><line style="stroke: #A80036; stroke-width: 1.5;" x1="758" x2="823" y1="86.1094" y2="86.1094"/><!--MD5=[7cabd9a8aa1d7be81cdcab5a605d9f6c]
class accounts--><rect fill="#FEFECE" filter="url(#f1ky88rjosx1k)" height="73.6094" id="accounts" style="stroke: #A80036; stroke-width: 1.5;" width="99" x="289" y="168"/><ellipse cx="308.05" cy="184" fill="#ADD1B2" rx="11" ry="11" style="stroke: #A80036; stroke-width: 1.0;"/><path d="M312.1594,190 L304.4406,190 L304.4406,177.6094 L312.1594,177.6094 L312.1594,179.7656 L306.8938,179.7656 L306.8938,182.4375 L311.6594,182.4375 L311.6594,184.5938 L306.8938,184.5938 L306.8938,187.8438 L312.1594,187.8438 L312.1594,190 Z "/><text fill="#000000" font-family="sans-serif" font-size="12" lengthAdjust="spacingAndGlyphs" textLength="58" x="322.95" y="188.1543">accounts</text><line style="stroke: #A80036; stroke-width: 1.5;" x1="290" x2="387" y1="200" y2="200"/><ellipse cx="300" cy="211" fill="#000000" rx="3" ry="3" style="stroke: #000000; stroke-width: 1.0;"/><text fill="#000000" font-family="sans-serif" font-size="11" lengthAdjust="spacingAndGlyphs" textLength="41" x="309" y="214.2104">id UUID</text><text fill="#000000" font-family="sans-serif" font-size="11" lengthAdjust="spacingAndGlyphs" textLength="73" x="309" y="227.0151">user_id UUID</text><line style="stroke: #A80036; stroke-width: 1.5;" x1="290" x2="387" y1="233.6094" y2="233.6094"/><path d="M423,192.5 L423,201 L388.26,205 L423,209 L423,217.6328 A0,0 0 0 0 423,217.6328 L640,217.6328 A0,0 0 0 0 640,217.6328 L640,202.5 L630,192.5 L423,192.5 A0,0 0 0 0 423,192.5 " fill="#FBFB77" filter="url(#f1ky88rjosx1k)" style="stroke: #A80036; stroke-width: 1.0;"/><path d="M630,192.5 L630,202.5 L640,202.5 L630,192.5 " fill="#FBFB77" style="stroke: #A80036; stroke-width: 1.0;"/><text fill="#000000" font-family="sans-serif" font-size="13" lengthAdjust="spacingAndGlyphs" textLength="196" x="429" y="209.5669">accounts_user_id_idx (user_id)</text><!--MD5=[90e15209eff3d30ea5de479d91b6b352]
class currencies--><rect fill="#FEFECE" filter="url(#f1ky88rjosx1k)" height="99.2188" id="currencies" style="stroke: #A80036; stroke-width: 1.5;" width="123" x="6" y="8"/><ellipse cx="32.25" cy="24" fill="#ADD1B2" rx="11" ry="11" style="stroke: #A80036; stroke-width: 1.0;"/><path d="M36.3594,30 L28.6406,30 L28.6406,17.6094 L36.3594,17.6094 L36.3594,19.7656 L31.0938,19.7656 L31.0938,22.4375 L35.8594,22.4375 L35.8594,24.5938 L31.0938,24.5938 L31.0938,27.8438 L36.3594,27.8438 L36.3594,30 Z "/><text fill="#000000" font-family="sans-serif" font-size="12" lengthAdjust="spacingAndGlyphs" textLength="66" x="48.75" y="28.1543">currencies</text><line style="stroke: #A80036; stroke-width: 1.5;" x1="7" x2="128" y1="40" y2="40"/><ellipse cx="17" cy="51" fill="#000000" rx="3" ry="3" style="stroke: #000000; stroke-width: 1.0;"/><text fill="#000000" font-family="sans-serif" font-size="11" lengthAdjust="spacingAndGlyphs" textLength="97" x="26" y="54.2104">code VARCHAR(3)</text><text fill="#000000" font-family="sans-serif" font-size="11" lengthAdjust="spacingAndGlyphs" textLength="32" x="26" y="67.0151">name</text><text fill="#000000" font-family="sans-serif" font-size="11" lengthAdjust="spacingAndGlyphs" textLength="41" x="26" y="79.8198">symbol</text><text fill="#000000" font-family="sans-serif" font-size="11" lengthAdjust="spacingAndGlyphs" textLength="52" x="26" y="92.6245">precision</text><line style="stroke: #A80036; stroke-width: 1.5;" x1="7" x2="128" y1="99.2188" y2="99.2188"/><!--MD5=[8d53228b184e70212eb202c858fab81b]
class categories--><rect fill="#FEFECE" filter="url(#f1ky88rjosx1k)" height="99.2188" id="categories" style="stroke: #A80036; stroke-width: 1.5;" width="117" x="417" y="303"/><ellipse cx="440.1" cy="319" fill="#ADD1B2" rx="11" ry="11" style="stroke: #A80036; stroke-width: 1.0;"/><path d="M444.2094,325 L436.4906,325 L436.4906,312.6094 L444.2094,312.6094 L444.2094,314.7656 L438.9438,314.7656 L438.9438,317.4375 L443.7094,317.4375 L443.7094,319.5938 L438.9438,319.5938 L438.9438,322.8438 L444.2094,322.8438 L444.2094,325 Z "/><text fill="#000000" font-family="sans-serif" font-size="12" lengthAdjust="spacingAndGlyphs" textLength="67" x="455.9" y="323.1543">categories</text><line style="stroke: #A80036; stroke-width: 1.5;" x1="418" x2="533" y1="335" y2="335"/><ellipse cx="428" cy="346" fill="#000000" rx="3" ry="3" style="stroke: #000000; stroke-width: 1.0;"/><text fill="#000000" font-family="sans-serif" font-size="11" lengthAdjust="spacingAndGlyphs" textLength="41" x="437" y="349.2104">id UUID</text><text fill="#000000" font-family="sans-serif" font-size="11" lengthAdjust="spacingAndGlyphs" textLength="84" x="437" y="362.0151">parent_id UUID</text><text fill="#000000" font-family="sans-serif" font-size="11" lengthAdjust="spacingAndGlyphs" textLength="91" x="437" y="374.8198">account_id UUID</text><text fill="#000000" font-family="sans-serif" font-size="11" lengthAdjust="spacingAndGlyphs" textLength="73" x="437" y="387.6245">user_id UUID</text><line style="stroke: #A80036; stroke-width: 1.5;" x1="418" x2="533" y1="394.2188" y2="394.2188"/><path d="M1017.5,340 L1017.5,365.1328 L1243.5,365.1328 L1243.5,350 L1233.5,340 L1017.5,340 " fill="#FBFB77" filter="url(#f1ky88rjosx1k)" style="stroke: #A80036; stroke-width: 1.0;"/><path d="M1233.5,340 L1233.5,350 L1243.5,350 L1233.5,340 " fill="#FBFB77" style="stroke: #A80036; stroke-width: 1.0;"/><text fill="#000000" font-family="sans-serif" font-size="13" lengthAdjust="spacingAndGlyphs" textLength="205" x="1023.5" y="357.0669">categories_user_id_idx (user_id)</text><!--MD5=[7f8e26d1a6333c7a5877a54d3f917b5b]
class transactions--><rect fill="#FEFECE" filter="url(#f1ky88rjosx1k)" height="137.6328" id="transactions" style="stroke: #A80036; stroke-width: 1.5;" width="122" x="549.5" y="463"/><ellipse cx="569.45" cy="479" fill="#ADD1B2" rx="11" ry="11" style="stroke: #A80036; stroke-width: 1.0;"/><path d="M573.5594,485 L565.8406,485 L565.8406,472.6094 L573.5594,472.6094 L573.5594,474.7656 L568.2938,474.7656 L568.2938,477.4375 L573.0594,477.4375 L573.0594,479.5938 L568.2938,479.5938 L568.2938,482.8438 L573.5594,482.8438 L573.5594,485 Z "/><text fill="#000000" font-family="sans-serif" font-size="12" lengthAdjust="spacingAndGlyphs" textLength="79" x="584.55" y="483.1543">transactions</text><line style="stroke: #A80036; stroke-width: 1.5;" x1="550.5" x2="670.5" y1="495" y2="495"/><ellipse cx="560.5" cy="506" fill="#000000" rx="3" ry="3" style="stroke: #000000; stroke-width: 1.0;"/><text fill="#000000" font-family="sans-serif" font-size="11" lengthAdjust="spacingAndGlyphs" textLength="41" x="569.5" y="509.2104">id UUID</text><text fill="#000000" font-family="sans-serif" font-size="11" lengthAdjust="spacingAndGlyphs" textLength="73" x="569.5" y="522.0151">user_id UUID</text><text fill="#000000" font-family="sans-serif" font-size="11" lengthAdjust="spacingAndGlyphs" textLength="96" x="569.5" y="534.8198">category_id UUID</text><text fill="#000000" font-family="sans-serif" font-size="11" lengthAdjust="spacingAndGlyphs" textLength="56" x="569.5" y="547.6245">posted_at</text><text fill="#000000" font-family="sans-serif" font-size="11" lengthAdjust="spacingAndGlyphs" textLength="34" x="569.5" y="560.4292">payee</text><text fill="#000000" font-family="sans-serif" font-size="11" lengthAdjust="spacingAndGlyphs" textLength="25" x="569.5" y="573.2339">note</text><text fill="#000000" font-family="sans-serif" font-size="11" lengthAdjust="spacingAndGlyphs" textLength="62" x="569.5" y="586.0386">external_id</text><line style="stroke: #A80036; stroke-width: 1.5;" x1="550.5" x2="670.5" y1="592.6328" y2="592.6328"/><path d="M707,519.5 L707,528 L671.74,532 L707,536 L707,544.6328 A0,0 0 0 0 707,544.6328 L1050,544.6328 A0,0 0 0 0 1050,544.6328 L1050,529.5 L1040,519.5 L707,519.5 A0,0 0 0 0 707,519.5 " fill="#FBFB77" filter="url(#f1ky88rjosx1k)" style="stroke: #A80036; stroke-width: 1.0;"/><path d="M1040,519.5 L1040,529.5 L1050,529.5 L1040,519.5 " fill="#FBFB77" style="stroke: #A80036; stroke-width: 1.0;"/><text fill="#000000" font-family="sans-serif" font-size="13" lengthAdjust="spacingAndGlyphs" textLength="322" x="713" y="536.5669">transactions_user_posted_idx (user_id, posted_at)</text><!--MD5=[cdc63da5e460ced229f4b042bef78960]
class postings--><rect fill="#FEFECE" filter="url(#f1ky88rjosx1k)" height="86.4141" id="postings" style="stroke: #A80036; stroke-width: 1.5;" width="137" x="224" y="662"/><ellipse cx="261.95" cy="678" fill="#ADD1B2" rx="11" ry="11" style="stroke: #A80036; stroke-width: 1.0;"/><path d="M266.0594,684 L258.3406,684 L258.3406,671.6094 L266.0594,671.6094 L266.0594,673.7656 L260.7938,673.7656 L260.7938,676.4375 L265.5594,676.4375 L265.5594,678.5938 L260.7938,678.5938 L260.7938,681.8438 L266.0594,681.8438 L266.0594,684 Z "/><text fill="#000000" font-family="sans-serif" font-size="12" lengthAdjust="spacingAndGlyphs" textLength="54" x="281.05" y="682.1543">postings</text><line style="stroke: #A80036; stroke-width: 1.5;" x1="225" x2="360" y1="694" y2="694"/><ellipse cx="235" cy="705" fill="#000000" rx="3" ry="3" style="stroke: #000000; stroke-width: 1.0;"/><text fill="#000000" font-family="sans-serif" font-size="11" lengthAdjust="spacingAndGlyphs" textLength="41" x="244" y="708.2104">id UUID</text><text fill="#000000" font-family="sans-serif" font-size="11" lengthAdjust="spacingAndGlyphs" textLength="111" x="244" y="721.0151">transaction_id UUID</text><text fill="#000000" font-family="sans-serif" font-size="11" lengthAdjust="spacingAndGlyphs" textLength="91" x="244" y="733.8198">account_id UUID</text><line style="stroke: #A80036; stroke-width: 1.5;" x1="225" x2="360" y1="740.4141" y2="740.4141"/><path d="M396,692.5 L396,701 L361.08,705 L396,709 L396,717.6328 A0,0 0 0 0 396,717.6328 L645,717.6328 A0,0 0 0 0 645,717.6328 L645,702.5 L635,692.5 L396,692.5 A0,0 0 0 0 396,692.5 " fill="#FBFB77" filter="url(#f1ky88rjosx1k)" style="stroke: #A80036; stroke-width: 1.0;"/><path d="M635,692.5 L635,702.5 L645,702.5 L635,692.5 " fill="#FBFB77" style="stroke: #A80036; stroke-width: 1.0;"/><text fill="#000000" font-family="sans-serif" font-size="13" lengthAdjust="spacingAndGlyphs" textLength="228" x="402" y="709.5669">postings_txn_id_idx (transaction_id)</text><!--MD5=[798913a9cabfe147b0aaeaac96360db2]
class goals--><rect fill="#FEFECE" filter="url(#f1ky88rjosx1k)" height="86.4141" id="goals" style="stroke: #A80036; stroke-width: 1.5;" width="117" x="865" y="309.5"/><ellipse cx="902.95" cy="325.5" fill="#ADD1B2" rx="11" ry="11" style="stroke: #A80036; stroke-width: 1.0;"/><path d="M907.0594,331.5 L899.3406,331.5 L899.3406,319.1094 L907.0594,319.1094 L907.0594,321.2656 L901.7938,321.2656 L901.7938,323.9375 L906.5594,323.9375 L906.5594,326.0938 L901.7938,326.0938 L901.7938,329.3438 L907.0594,329.3438 L907.0594,331.5 Z "/><text fill="#000000" font-family="sans-serif" font-size="12" lengthAdjust="spacingAndGlyphs" textLength="34" x="922.05" y="329.6543">goals</text><line style="stroke: #A80036; stroke-width: 1.5;" x1="866" x2="981" y1="341.5" y2="341.5"/><ellipse cx="876" cy="352.5" fill="#000000" rx="3" ry="3" style="stroke: #000000; stroke-width: 1.0;"/><text fill="#000000" font-family="sans-serif" font-size="11" lengthAdjust="spacingAndGlyphs" textLength="41" x="885" y="355.7104">id UUID</text><text fill="#000000" font-family="sans-serif" font-size="11" lengthAdjust="spacingAndGlyphs" textLength="91" x="885" y="368.5151">account_id UUID</text><text fill="#000000" font-family="sans-serif" font-size="11" lengthAdjust="spacingAndGlyphs" textLength="73" x="885" y="381.3198">user_id UUID</text><line style="stroke: #A80036; stroke-width: 1.5;" x1="866" x2="981" y1="387.9141" y2="387.9141"/><!--MD5=[852ef840353f6214332b76e489a98c80]
class recurring_payments--><rect fill="#FEFECE" filter="url(#f1ky88rjosx1k)" height="99.2188" id="recurring_payments" style="stroke: #A80036; stroke-width: 1.5;" width="156" x="358.5" y="482.5"/><ellipse cx="373.5" cy="498.5" fill="#ADD1B2" rx="11" ry="11" style="stroke: #A80036; stroke-width: 1.0;"/><path d="M377.6094,504.5 L369.8906,504.5 L369.8906,492.1094 L377.6094,492.1094 L377.6094,494.2656 L372.3438,494.2656 L372.3438,496.9375 L377.1094,496.9375 L377.1094,499.0938 L372.3438,499.0938 L372.3438,502.3438 L377.6094,502.3438 L377.6094,504.5 Z "/><text fill="#000000" font-family="sans-serif" font-size="12" lengthAdjust="spacingAndGlyphs" textLength="124" x="387.5" y="502.6543">recurring_payments</text><line style="stroke: #A80036; stroke-width: 1.5;" x1="359.5" x2="513.5" y1="514.5" y2="514.5"/><ellipse cx="369.5" cy="525.5" fill="#000000" rx="3" ry="3" style="stroke: #000000; stroke-width: 1.0;"/><text fill="#000000" font-family="sans-serif" font-size="11" lengthAdjust="spacingAndGlyphs" textLength="41" x="378.5" y="528.7104">id UUID</text><text fill="#000000" font-family="sans-serif" font-size="11" lengthAdjust="spacingAndGlyphs" textLength="96" x="378.5" y="541.5151">category_id UUID</text><text fill="#000000" font-family="sans-serif" font-size="11" lengthAdjust="spacingAndGlyphs" textLength="91" x="378.5" y="554.3198">account_id UUID</text><text fill="#000000" font-family="sans-serif" font-size="11" lengthAdjust="spacingAndGlyphs" textLength="73" x="378.5" y="567.1245">user_id UUID</text><line style="stroke: #A80036; stroke-width: 1.5;" x1="359.5" x2="513.5" y1="573.7188" y2="573.7188"/><!--MD5=[18743fb8d3d536581ff82c272a7798ac]
class bank_tokens--><rect fill="#FEFECE" filter="url(#f1ky88rjosx1k)" height="86.4141" id="bank_tokens" style="stroke: #A80036; stroke-width: 1.5;" width="117" x="641" y="309.5"/><ellipse cx="658.25" cy="325.5" fill="#ADD1B2" rx="11" ry="11" style="stroke: #A80036; stroke-width: 1.0;"/><path d="M662.3594,331.5 L654.6406,331.5 L654.6406,319.1094 L662.3594,319.1094 L662.3594,321.2656 L657.0938,321.2656 L657.0938,323.9375 L661.8594,323.9375 L661.8594,326.0938 L657.0938,326.0938 L657.0938,329.3438 L662.3594,329.3438 L662.3594,331.5 Z "/><text fill="#000000" font-family="sans-serif" font-size="12" lengthAdjust="spacingAndGlyphs" textLength="80" x="672.75" y="329.6543">bank_tokens</text><line style="stroke: #A80036; stroke-width: 1.5;" x1="642" x2="757" y1="341.5" y2="341.5"/><ellipse cx="652" cy="352.5" fill="#000000" rx="3" ry="3" style="stroke: #000000; stroke-width: 1.0;"/><text fill="#000000" font-family="sans-serif" font-size="11" lengthAdjust="spacingAndGlyphs" textLength="41" x="661" y="355.7104">id UUID</text><text fill="#000000" font-family="sans-serif" font-size="11" lengthAdjust="spacingAndGlyphs" textLength="91" x="661" y="368.5151">account_id UUID</text><text fill="#000000" font-family="sans-serif" font-size="11" lengthAdjust="spacingAndGlyphs" textLength="73" x="661" y="381.3198">user_id UUID</text><line style="stroke: #A80036; stroke-width: 1.5;" x1="642" x2="757" y1="387.9141" y2="387.9141"/><!--MD5=[e4adc624c89a64a172b95447f5c55c11]
class push_subscriptions--><rect fill="#FEFECE" filter="url(#f1ky88rjosx1k)" height="86.4141" id="push_subscriptions" style="stroke: #A80036; stroke-width: 1.5;" width="153" x="86" y="309.5"/><ellipse cx="101" cy="325.5" fill="#ADD1B2" rx="11" ry="11" style="stroke: #A80036; stroke-width: 1.0;"/><path d="M105.1094,331.5 L97.3906,331.5 L97.3906,319.1094 L105.1094,319.1094 L105.1094,321.2656 L99.8438,321.2656 L99.8438,323.9375 L104.6094,323.9375 L104.6094,326.0938 L99.8438,326.0938 L99.8438,329.3438 L105.1094,329.3438 L105.1094,331.5 Z "/><text fill="#000000" font-family="sans-serif" font-size="12" lengthAdjust="spacingAndGlyphs" textLength="121" x="115" y="329.6543">push_subscriptions</text><line style="stroke: #A80036; stroke-width: 1.5;" x1="87" x2="238" y1="341.5" y2="341.5"/><ellipse cx="97" cy="352.5" fill="#000000" rx="3" ry="3" style="stroke: #000000; stroke-width: 1.0;"/><text fill="#000000" font-family="sans-serif" font-size="11" lengthAdjust="spacingAndGlyphs" textLength="41" x="106" y="355.7104">id UUID</text><text fill="#000000" font-family="sans-serif" font-size="11" lengthAdjust="spacingAndGlyphs" textLength="91" x="106" y="368.5151">account_id UUID</text><text fill="#000000" font-family="sans-serif" font-size="11" lengthAdjust="spacingAndGlyphs" textLength="73" x="106" y="381.3198">user_id UUID</text><line style="stroke: #A80036; stroke-width: 1.5;" x1="87" x2="238" y1="387.9141" y2="387.9141"/><!--MD5=[c7c9af45cdc3ff72ca7b4cc9cd4dbb92]
link categories to GMN9--><path d="M534.01,316.2 C564.65,299.31 603.51,281.08 641,272.5 C788.73,238.67 835.05,235.43 982,272.5 C1033.96,285.61 1087.52,320.85 1113.84,339.89 " fill="none" id="categories-GMN9" style="stroke: #A80036; stroke-width: 1.0; stroke-dasharray: 7.0,7.0;"/><!--MD5=[167a2d055c685a3d3b314b3b1bbb93f4]
link users to accounts--><path d="M749.07,67.18 C677.46,82.87 526.58,118.93 405.5,168 C402.17,169.35 398.8,170.81 395.43,172.36 " fill="none" id="users-accounts" style="stroke: #A80036; stroke-width: 1.0;"/><line style="stroke: #A80036; stroke-width: 1.0;" x1="395.2782" x2="390.6213" y1="172.4316" y2="181.2811"/><line style="stroke: #A80036; stroke-width: 1.0;" x1="395.2782" x2="385.4787" y1="172.4316" y2="170.4389"/><line style="stroke: #A80036; stroke-width: 1.0;" x1="395.2782" x2="388.05" y1="172.4316" y2="175.86"/><ellipse cx="400.6993" cy="169.8603" fill="none" rx="4" ry="4" style="stroke: #A80036; stroke-width: 1.0;"/><line style="stroke: #A80036; stroke-width: 1.0;" x1="752.2311" x2="753.9317" y1="62.4017" y2="70.2189"/><line style="stroke: #A80036; stroke-width: 1.0;" x1="749.2997" x2="751.0003" y1="63.0395" y2="70.8566"/><line style="stroke: #A80036; stroke-width: 1.0;" x1="749.1728" x2="756.99" y1="67.1606" y2="65.46"/><!--MD5=[f010663284c4bf842ebd56b6f42bea4e]
link users to categories--><path d="M766.08,101.78 C742.11,141.58 702.66,200.55 657.5,242 C622.99,273.68 577.92,300.88 541.26,320.25 " fill="none" id="users-categories" style="stroke: #A80036; stroke-width: 1.0;"/><line style="stroke: #A80036; stroke-width: 1.0;" x1="541.1314" x2="536.8172" y1="320.307" y2="329.3286"/><line style="stroke: #A80036; stroke-width: 1.0;" x1="541.1314" x2="531.2628" y1="320.307" y2="318.6914"/><line style="stroke: #A80036; stroke-width: 1.0;" x1="541.1314" x2="534.04" y1="320.307" y2="324.01"/><ellipse cx="546.45" cy="317.5298" fill="none" rx="4" ry="4" style="stroke: #A80036; stroke-width: 1.0;"/><line style="stroke: #A80036; stroke-width: 1.0;" x1="764.8854" x2="771.7554" y1="95.9554" y2="100.0546"/><line style="stroke: #A80036; stroke-width: 1.0;" x1="763.3482" x2="770.2182" y1="98.5317" y2="102.6308"/><line style="stroke: #A80036; stroke-width: 1.0;" x1="766.2708" x2="770.37" y1="101.44" y2="94.57"/><!--MD5=[2a9c393571ed33840c21dbba032d0f66]
link users to transactions--><path d="M832.21,69.16 C972.07,106.72 1407.62,239.47 1261.5,402 C1176.04,497.06 806.81,412.22 689.5,463 C685.76,464.62 682.06,466.48 678.43,468.53 " fill="none" id="users-transactions" style="stroke: #A80036; stroke-width: 1.0;"/><line style="stroke: #A80036; stroke-width: 1.0;" x1="678.3936" x2="674.6348" y1="468.5635" y2="477.8302"/><line style="stroke: #A80036; stroke-width: 1.0;" x1="678.3936" x2="668.4452" y1="468.5635" y2="467.5498"/><line style="stroke: #A80036; stroke-width: 1.0;" x1="678.3936" x2="671.54" y1="468.5635" y2="472.69"/><ellipse cx="683.5339" cy="465.4687" fill="none" rx="4" ry="4" style="stroke: #A80036; stroke-width: 1.0;"/><line style="stroke: #A80036; stroke-width: 1.0;" x1="827.0465" x2="829.1043" y1="71.9243" y2="64.1935"/><line style="stroke: #A80036; stroke-width: 1.0;" x1="829.9456" x2="832.0033" y1="72.6959" y2="64.9651"/><line style="stroke: #A80036; stroke-width: 1.0;" x1="831.9408" x2="824.21" y1="69.0877" y2="67.03"/><!--MD5=[266e1d6a9ffcebe83ebd5de9a38db3f7]
link users to goals--><path d="M821.45,101.47 C828.87,112.73 836.39,125.07 842.5,137 C870.22,191.15 893.71,257.09 908.14,301.45 " fill="none" id="users-goals" style="stroke: #A80036; stroke-width: 1.0;"/><line style="stroke: #A80036; stroke-width: 1.0;" x1="908.1831" x2="916.35" y1="301.5866" y2="307.3574"/><line style="stroke: #A80036; stroke-width: 1.0;" x1="908.1831" x2="904.93" y1="301.5866" y2="311.0426"/><line style="stroke: #A80036; stroke-width: 1.0;" x1="908.1831" x2="910.64" y1="301.5866" y2="309.2"/><ellipse cx="906.3405" cy="295.8766" fill="none" rx="4" ry="4" style="stroke: #A80036; stroke-width: 1.0;"/><line style="stroke: #A80036; stroke-width: 1.0;" x1="815.7533" x2="822.4076" y1="100.1576" y2="95.7167"/><line style="stroke: #A80036; stroke-width: 1.0;" x1="817.4187" x2="824.0729" y1="102.6529" y2="98.212"/><line style="stroke: #A80036; stroke-width: 1.0;" x1="821.3009" x2="816.86" y1="101.2642" y2="94.61"/><!--MD5=[9e23e7160a8b22778c86b3eb8dfffc21]
link users to recurring_payments--><path d="M803.61,102.67 C821.9,174.23 845.53,316.15 775.5,402 C705.12,488.29 633.66,416.47 532.5,463 C523.18,467.28 513.83,472.5 504.81,478.13 " fill="none" id="users-recurring_payments" style="stroke: #A80036; stroke-width: 1.0;"/><line style="stroke: #A80036; stroke-width: 1.0;" x1="504.7287" x2="501.2237" y1="478.1884" y2="487.554"/><line style="stroke: #A80036; stroke-width: 1.0;" x1="504.7287" x2="494.7563" y1="478.1884" y2="477.446"/><line style="stroke: #A80036; stroke-width: 1.0;" x1="504.7287" x2="497.99" y1="478.1884" y2="482.5"/><ellipse cx="509.7827" cy="474.9547" fill="none" rx="4" ry="4" style="stroke: #A80036; stroke-width: 1.0;"/><line style="stroke: #A80036; stroke-width: 1.0;" x1="798.6728" x2="806.4081" y1="99.6081" y2="97.5672"/><line style="stroke: #A80036; stroke-width: 1.0;" x1="799.4381" x2="807.1734" y1="102.5088" y2="100.468"/><line style="stroke: #A80036; stroke-width: 1.0;" x1="803.5609" x2="801.52" y1="102.4553" y2="94.72"/><!--MD5=[bfc8bc54d589606411dbe51d51d88b4e]
link users to bank_tokens--><path d="M814.19,102.4 C817.81,113.9 819.49,126.34 816.5,138 C800.91,198.9 763.95,261.09 735.7,302.53 " fill="none" id="users-bank_tokens" style="stroke: #A80036; stroke-width: 1.0;"/><line style="stroke: #A80036; stroke-width: 1.0;" x1="735.6125" x2="736.0089" y1="302.6648" y2="312.6569"/><line style="stroke: #A80036; stroke-width: 1.0;" x1="735.6125" x2="726.1311" y1="302.6648" y2="305.8431"/><line style="stroke: #A80036; stroke-width: 1.0;" x1="735.6125" x2="731.07" y1="302.6648" y2="309.25"/><ellipse cx="739.0194" cy="297.7258" fill="none" rx="4" ry="4" style="stroke: #A80036; stroke-width: 1.0;"/><line style="stroke: #A80036; stroke-width: 1.0;" x1="808.9851" x2="816.5155" y1="99.7355" y2="97.0349"/><line style="stroke: #A80036; stroke-width: 1.0;" x1="809.9979" x2="817.5283" y1="102.5594" y2="99.8588"/><line style="stroke: #A80036; stroke-width: 1.0;" x1="814.1006" x2="811.4" y1="102.1504" y2="94.62"/><!--MD5=[0bd88d8a2decbb38bb67e1a18860fc4d]
link users to push_subscriptions--><path d="M748.65,62.97 C639.42,75.3 348.85,112.62 271.5,168 C225.69,200.8 195.85,259.36 179.17,301.52 " fill="none" id="users-push_subscriptions" style="stroke: #A80036; stroke-width: 1.0;"/><line style="stroke: #A80036; stroke-width: 1.0;" x1="179.0699" x2="181.8006" y1="301.7225" y2="311.3424"/><line style="stroke: #A80036; stroke-width: 1.0;" x1="179.0699" x2="170.5994" y1="301.7225" y2="307.0376"/><line style="stroke: #A80036; stroke-width: 1.0;" x1="179.0699" x2="176.2" y1="301.7225" y2="309.19"/><ellipse cx="181.2224" cy="296.1219" fill="none" rx="4" ry="4" style="stroke: #A80036; stroke-width: 1.0;"/><line style="stroke: #A80036; stroke-width: 1.0;" x1="752.392" x2="753.2771" y1="58.5271" y2="66.478"/><line style="stroke: #A80036; stroke-width: 1.0;" x1="749.4105" x2="750.2955" y1="58.8589" y2="66.8098"/><line style="stroke: #A80036; stroke-width: 1.0;" x1="748.8591" x2="756.81" y1="62.945" y2="62.06"/><!--MD5=[9a9c414d96f242261be3321d12c71bd9]
link accounts to categories--><path d="M378.49,248.47 C392.75,263.61 409.01,280.88 424.09,296.9 " fill="none" id="accounts-categories" style="stroke: #A80036; stroke-width: 1.0;"/><line style="stroke: #A80036; stroke-width: 1.0;" x1="424.0971" x2="433.9492" y1="296.9144" y2="298.6278"/><line style="stroke: #A80036; stroke-width: 1.0;" x1="424.0971" x2="425.2108" y1="296.9144" y2="306.8522"/><line style="stroke: #A80036; stroke-width: 1.0;" x1="424.0971" x2="429.58" y1="296.9144" y2="302.74"/><ellipse cx="419.9849" cy="292.5452" fill="none" rx="4" ry="4" style="stroke: #A80036; stroke-width: 1.0;"/><line style="stroke: #A80036; stroke-width: 1.0;" x1="372.5413" x2="378.374" y1="247.994" y2="242.5187"/><line style="stroke: #A80036; stroke-width: 1.0;" x1="374.5946" x2="380.4273" y1="250.1813" y2="244.706"/><line style="stroke: #A80036; stroke-width: 1.0;" x1="378.1953" x2="372.72" y1="248.1727" y2="242.34"/><!--MD5=[f2054f1200fa470614089166ac441499]
link accounts to goals--><path d="M395.74,238.3 C399,239.65 402.27,240.9 405.5,242 C484.38,268.86 694.56,283.19 775.5,303 C802.51,309.61 831.71,318.74 856.98,327.3 " fill="none" id="accounts-goals" style="stroke: #A80036; stroke-width: 1.0;"/><line style="stroke: #A80036; stroke-width: 1.0;" x1="857.1193" x2="866.6291" y1="327.3445" y2="324.252"/><line style="stroke: #A80036; stroke-width: 1.0;" x1="857.1193" x2="862.7509" y1="327.3445" y2="335.608"/><line style="stroke: #A80036; stroke-width: 1.0;" x1="857.1193" x2="864.69" y1="327.3445" y2="329.93"/><ellipse cx="851.4413" cy="325.4054" fill="none" rx="4" ry="4" style="stroke: #A80036; stroke-width: 1.0;"/><line style="stroke: #A80036; stroke-width: 1.0;" x1="390.2365" x2="393.4498" y1="240.2498" y2="232.9235"/><line style="stroke: #A80036; stroke-width: 1.0;" x1="392.9839" x2="396.1972" y1="241.4548" y2="234.1285"/><line style="stroke: #A80036; stroke-width: 1.0;" x1="395.5063" x2="388.18" y1="238.1933" y2="234.98"/><!--MD5=[b9e8cc149ad88d0212c132e1788c3a0d]
link accounts to recurring_payments--><path d="M351.73,249.88 C369.26,308 400.19,410.57 419.45,474.44 " fill="none" id="accounts-recurring_payments" style="stroke: #A80036; stroke-width: 1.0;"/><line style="stroke: #A80036; stroke-width: 1.0;" x1="419.5355" x2="427.5934" y1="474.7621" y2="480.6841"/><line style="stroke: #A80036; stroke-width: 1.0;" x1="419.5355" x2="416.1066" y1="474.7621" y2="484.1559"/><line style="stroke: #A80036; stroke-width: 1.0;" x1="419.5355" x2="421.85" y1="474.7621" y2="482.42"/><ellipse cx="417.7996" cy="469.0187" fill="none" rx="4" ry="4" style="stroke: #A80036; stroke-width: 1.0;"/><line style="stroke: #A80036; stroke-width: 1.0;" x1="346.6883" x2="354.3462" y1="247.0062" y2="244.6917"/><line style="stroke: #A80036; stroke-width: 1.0;" x1="347.5563" x2="355.2141" y1="249.8779" y2="247.5634"/><line style="stroke: #A80036; stroke-width: 1.0;" x1="351.6745" x2="349.36" y1="249.6779" y2="242.02"/><!--MD5=[653db1a50ce928aa9e3b12a43ba138e3]
link accounts to bank_tokens--><path d="M395.42,237.66 C398.8,239.2 402.17,240.66 405.5,242 C498.82,279.59 531.65,261.94 623.5,303 C626.8,304.48 630.13,306.08 633.45,307.78 " fill="none" id="accounts-bank_tokens" style="stroke: #A80036; stroke-width: 1.0;"/><line style="stroke: #A80036; stroke-width: 1.0;" x1="633.6284" x2="643.5096" y1="307.8805" y2="306.3438"/><line style="stroke: #A80036; stroke-width: 1.0;" x1="633.6284" x2="637.8704" y1="307.8805" y2="316.9362"/><line style="stroke: #A80036; stroke-width: 1.0;" x1="633.6284" x2="640.69" y1="307.8805" y2="311.64"/><ellipse cx="628.3322" cy="305.0609" fill="none" rx="4" ry="4" style="stroke: #A80036; stroke-width: 1.0;"/><line style="stroke: #A80036; stroke-width: 1.0;" x1="389.9485" x2="393.3652" y1="239.4952" y2="232.2615"/><line style="stroke: #A80036; stroke-width: 1.0;" x1="392.6611" x2="396.0778" y1="240.7765" y2="233.5428"/><line style="stroke: #A80036; stroke-width: 1.0;" x1="395.2737" x2="388.04" y1="237.5867" y2="234.17"/><!--MD5=[042cf30179a72658c9745d91cb45a78f]
link accounts to push_subscriptions--><path d="M288.36,247.45 C266.89,265.2 241.72,286.01 219.54,304.34 " fill="none" id="accounts-push_subscriptions" style="stroke: #A80036; stroke-width: 1.0;"/><line style="stroke: #A80036; stroke-width: 1.0;" x1="219.541" x2="217.2074" y1="304.3368" y2="314.0607"/><line style="stroke: #A80036; stroke-width: 1.0;" x1="219.541" x2="209.5526" y1="304.3368" y2="304.8193"/><line style="stroke: #A80036; stroke-width: 1.0;" x1="219.541" x2="213.38" y1="304.3368" y2="309.44"/><ellipse cx="224.1617" cy="300.5094" fill="none" rx="4" ry="4" style="stroke: #A80036; stroke-width: 1.0;"/><line style="stroke: #A80036; stroke-width: 1.0;" x1="288.9085" x2="294.0047" y1="241.8047" y2="247.9715"/><line style="stroke: #A80036; stroke-width: 1.0;" x1="286.596" x2="291.6921" y1="243.7157" y2="249.8825"/><line style="stroke: #A80036; stroke-width: 1.0;" x1="288.3732" x2="294.54" y1="247.4362" y2="242.34"/><!--MD5=[5b0b314981474efc84e05702d78ec915]
link accounts to postings--><path d="M334.42,250.2 C325.88,342.61 306.19,555.75 297.17,653.43 " fill="none" id="accounts-postings" style="stroke: #A80036; stroke-width: 1.0;"/><line style="stroke: #A80036; stroke-width: 1.0;" x1="297.1394" x2="302.385" y1="653.7033" y2="662.2171"/><line style="stroke: #A80036; stroke-width: 1.0;" x1="297.1394" x2="290.435" y1="653.7033" y2="661.1229"/><line style="stroke: #A80036; stroke-width: 1.0;" x1="297.1394" x2="296.41" y1="653.7033" y2="661.67"/><ellipse cx="297.6865" cy="647.7283" fill="none" rx="4" ry="4" style="stroke: #A80036; stroke-width: 1.0;"/><line style="stroke: #A80036; stroke-width: 1.0;" x1="330.7961" x2="338.7616" y1="245.8316" y2="246.5739"/><line style="stroke: #A80036; stroke-width: 1.0;" x1="330.5177" x2="338.4832" y1="248.8186" y2="249.561"/><line style="stroke: #A80036; stroke-width: 1.0;" x1="334.4077" x2="335.15" y1="250.1855" y2="242.22"/><!--MD5=[7f88076dbd82ac00fdb950565966deef]
link currencies to accounts--><path d="M136.53,95.56 C181.42,119.66 239.25,150.71 281.52,173.41 " fill="none" id="currencies-accounts" style="stroke: #A80036; stroke-width: 1.0;"/><line style="stroke: #A80036; stroke-width: 1.0;" x1="281.6535" x2="291.5408" y1="173.4723" y2="171.9751"/><line style="stroke: #A80036; stroke-width: 1.0;" x1="281.6535" x2="285.8592" y1="173.4723" y2="182.5449"/><line style="stroke: #A80036; stroke-width: 1.0;" x1="281.6535" x2="288.7" y1="173.4723" y2="177.26"/><ellipse cx="276.3686" cy="170.6316" fill="none" rx="4" ry="4" style="stroke: #A80036; stroke-width: 1.0;"/><line style="stroke: #A80036; stroke-width: 1.0;" x1="130.9594" x2="134.7471" y1="97.1171" y2="90.0706"/><line style="stroke: #A80036; stroke-width: 1.0;" x1="133.6019" x2="137.3895" y1="98.5375" y2="91.491"/><line style="stroke: #A80036; stroke-width: 1.0;" x1="136.3765" x2="129.33" y1="95.4877" y2="91.7"/><!--MD5=[737016cd1a47a81ed54ddd83ffba2f13]
link currencies to postings--><path d="M47.37,115.01 C39.58,141.65 32.5,174.09 32.5,204 C32.5,204 32.5,204 32.5,533 C32.5,621.66 139.35,666.93 216.06,687.99 " fill="none" id="currencies-postings" style="stroke: #A80036; stroke-width: 1.0;"/><line style="stroke: #A80036; stroke-width: 1.0;" x1="216.1192" x2="225.3933" y1="688.0223" y2="684.2819"/><line style="stroke: #A80036; stroke-width: 1.0;" x1="216.1192" x2="222.3067" y1="688.0223" y2="695.8781"/><line style="stroke: #A80036; stroke-width: 1.0;" x1="216.1192" x2="223.85" y1="688.0223" y2="690.08"/><ellipse cx="210.3211" cy="686.4789" fill="none" rx="4" ry="4" style="stroke: #A80036; stroke-width: 1.0;"/><line style="stroke: #A80036; stroke-width: 1.0;" x1="44.7052" x2="52.3643" y1="109.9743" y2="112.2848"/><line style="stroke: #A80036; stroke-width: 1.0;" x1="43.8387" x2="51.4978" y1="112.8464" y2="115.157"/><line style="stroke: #A80036; stroke-width: 1.0;" x1="47.3794" x2="49.69" y1="114.9591" y2="107.3"/><!--MD5=[90ba14ac750edd38a8bf30655a65d272]
link categories to transactions--><path d="M517.5,408.72 C528.92,423.74 541.48,440.25 553.58,456.16 " fill="none" id="categories-transactions" style="stroke: #A80036; stroke-width: 1.0;"/><line style="stroke: #A80036; stroke-width: 1.0;" x1="553.8821" x2="563.5028" y1="456.5662" y2="459.2941"/><line style="stroke: #A80036; stroke-width: 1.0;" x1="553.8821" x2="553.9572" y1="456.5662" y2="466.5659"/><line style="stroke: #A80036; stroke-width: 1.0;" x1="553.8821" x2="558.73" y1="456.5662" y2="462.93"/><ellipse cx="550.2461" cy="451.7934" fill="none" rx="4" ry="4" style="stroke: #A80036; stroke-width: 1.0;"/><line style="stroke: #A80036; stroke-width: 1.0;" x1="511.626" x2="517.995" y1="407.605" y2="402.764"/><line style="stroke: #A80036; stroke-width: 1.0;" x1="513.4414" x2="519.8104" y1="409.9934" y2="405.1524"/><line style="stroke: #A80036; stroke-width: 1.0;" x1="517.231" x2="512.39" y1="408.369" y2="402"/><!--MD5=[8319dccea61d66404f6e7f209ac2a94e]
link categories to recurring_payments--><path d="M463.07,410.06 C458.57,430.56 453.48,453.71 448.97,474.23 " fill="none" id="categories-recurring_payments" style="stroke: #A80036; stroke-width: 1.0;"/><line style="stroke: #A80036; stroke-width: 1.0;" x1="448.9379" x2="453.0684" y1="474.4388" y2="483.5459"/><line style="stroke: #A80036; stroke-width: 1.0;" x1="448.9379" x2="441.3516" y1="474.4388" y2="480.9541"/><line style="stroke: #A80036; stroke-width: 1.0;" x1="448.9379" x2="447.21" y1="474.4388" y2="482.25"/><ellipse cx="450.2338" cy="468.5804" fill="none" rx="4" ry="4" style="stroke: #A80036; stroke-width: 1.0;"/><line style="stroke: #A80036; stroke-width: 1.0;" x1="460.0758" x2="467.89" y1="405.05" y2="406.7642"/><line style="stroke: #A80036; stroke-width: 1.0;" x1="459.4329" x2="467.2471" y1="407.9803" y2="409.6945"/><line style="stroke: #A80036; stroke-width: 1.0;" x1="463.1257" x2="464.84" y1="409.8142" y2="402"/><!--MD5=[2ae1c003342637be34353522cbdeecba]
link categories to categories--><path d="M542.68,337.86 C557.88,339.17 569,344.05 569,352.5 C569,360.95 557.88,365.83 542.68,367.14 " fill="none" id="categories-categories" style="stroke: #A80036; stroke-width: 1.0;"/><line style="stroke: #A80036; stroke-width: 1.0;" x1="542.382" x2="534.6576" y1="367.1432" y2="373.494"/><line style="stroke: #A80036; stroke-width: 1.0;" x1="542.382" x2="534.1224" y1="367.1432" y2="361.506"/><line style="stroke: #A80036; stroke-width: 1.0;" x1="542.382" x2="534.39" y1="367.1432" y2="367.5"/><ellipse cx="548.3761" cy="366.8756" fill="none" rx="4" ry="4" style="stroke: #A80036; stroke-width: 1.0;"/><line style="stroke: #A80036; stroke-width: 1.0;" x1="538.2076" x2="538.5644" y1="341.6744" y2="333.6824"/><line style="stroke: #A80036; stroke-width: 1.0;" x1="541.2046" x2="541.5614" y1="341.8082" y2="333.8162"/><line style="stroke: #A80036; stroke-width: 1.0;" x1="542.382" x2="534.39" y1="337.8568" y2="337.5"/><text fill="#000000" font-family="sans-serif" font-size="13" lengthAdjust="spacingAndGlyphs" textLength="42" x="575" y="357.0669">parent</text><!--MD5=[5749d23187a88012cc1ad27651801fdb]
link transactions to postings--><path d="M542.84,594.25 C539.41,596.63 535.96,598.89 532.5,601 C469.63,639.3 445.85,632.27 378.5,662 C375.25,663.44 371.94,664.92 368.61,666.45 " fill="none" id="transactions-postings" style="stroke: #A80036; stroke-width: 1.0;"/><line style="stroke: #A80036; stroke-width: 1.0;" x1="368.5433" x2="363.795" y1="666.4766" y2="675.2774"/><line style="stroke: #A80036; stroke-width: 1.0;" x1="368.5433" x2="358.765" y1="666.4766" y2="664.3826"/><line style="stroke: #A80036; stroke-width: 1.0;" x1="368.5433" x2="361.28" y1="666.4766" y2="669.83"/><ellipse cx="373.9907" cy="663.9616" fill="none" rx="4" ry="4" style="stroke: #A80036; stroke-width: 1.0;"/><line style="stroke: #A80036; stroke-width: 1.0;" x1="543.7988" x2="548.4581" y1="588.6381" y2="595.1412"/><line style="stroke: #A80036; stroke-width: 1.0;" x1="541.3601" x2="546.0195" y1="590.3854" y2="596.8885"/><line style="stroke: #A80036; stroke-width: 1.0;" x1="542.8769" x2="549.38" y1="594.2194" y2="589.56"/><!--MD5=[67ef1b3fefd5c4f8ae60600a1355a35c]
@startuml
entity users {
  *id UUID
  email
}
entity accounts {
  *id UUID
  user_id UUID
}
note right of accounts
  accounts_user_id_idx (user_id)
end note
entity currencies {
  *code VARCHAR(3)
  name
  symbol
  precision
}
entity categories {
  *id UUID
  parent_id UUID
  account_id UUID
  user_id UUID
}
note right of categories
  categories_user_id_idx (user_id)
end note
entity transactions {
  *id UUID
  user_id UUID
  category_id UUID
  posted_at
  payee
  note
  external_id
}
note right of transactions
  transactions_user_posted_idx (user_id, posted_at)
end note
entity postings {
  *id UUID
  transaction_id UUID
  account_id UUID
}
note right of postings
  postings_txn_id_idx (transaction_id)
end note
entity goals {
  *id UUID
  account_id UUID
  user_id UUID
}
entity recurring_payments {
  *id UUID
  category_id UUID
  account_id UUID
  user_id UUID
}
entity bank_tokens {
  *id UUID
  account_id UUID
  user_id UUID
}
entity push_subscriptions {
  *id UUID
  account_id UUID
  user_id UUID
}

users ||- -o{ accounts
users ||- -o{ categories
users ||- -o{ transactions
users ||- -o{ goals
users ||- -o{ recurring_payments
users ||- -o{ bank_tokens
users ||- -o{ push_subscriptions
accounts ||- -o{ categories
accounts ||- -o{ goals
accounts ||- -o{ recurring_payments
accounts ||- -o{ bank_tokens
accounts ||- -o{ push_subscriptions
accounts ||- -o{ postings
currencies ||- -o{ accounts
currencies ||- -o{ postings
categories ||- -o{ transactions
categories ||- -o{ recurring_payments
categories ||- -o{ categories : parent
transactions ||- -o{ postings
@enduml

PlantUML version 1.2020.02(Sun Mar 01 10:22:07 UTC 2020)
(GPL source distribution)
Java Runtime: OpenJDK Runtime Environment
JVM: OpenJDK 64-Bit Server VM
Java Version: 21.0.7+6-Ubuntu-0ubuntu124.04
Operating System: Linux
Default Encoding: UTF-8
Language: en
Country: null
--></g></svg>
