<?xml version="1.0" encoding="UTF-8" standalone="no"?><svg xmlns="http://www.w3.org/2000/svg" xmlns:xlink="http://www.w3.org/1999/xlink" contentScriptType="application/ecmascript" contentStyleType="text/css" height="759px" preserveAspectRatio="none" style="width:1090px;height:759px;" version="1.1" viewBox="0 0 1090 759" width="1090px" zoomAndPan="magnify"><defs><filter height="300%" id="f1idpp7pmdzej1" width="300%" x="-1" y="-1"><feGaussianBlur result="blurOut" stdDeviation="2.0"/><feColorMatrix in="blurOut" result="blurOut2" type="matrix" values="0 0 0 0 0 0 0 0 0 0 0 0 0 0 0 0 0 0 .4 0"/><feOffset dx="4.0" dy="4.0" in="blurOut2" result="blurOut3"/><feBlend in="SourceGraphic" in2="blurOut3" mode="normal"/></filter></defs><g><!--MD5=[8413f8248b2da7966d2de021109ec289]
class users--><rect fill="#FEFECE" filter="url(#f1idpp7pmdzej1)" height="73.6094" id="users" style="stroke: #A80036; stroke-width: 1.5;" width="67" x="655" y="20.5"/><ellipse cx="670" cy="36.5" fill="#ADD1B2" rx="11" ry="11" style="stroke: #A80036; stroke-width: 1.0;"/><path d="M674.1094,42.5 L666.3906,42.5 L666.3906,30.1094 L674.1094,30.1094 L674.1094,32.2656 L668.8438,32.2656 L668.8438,34.9375 L673.6094,34.9375 L673.6094,37.0938 L668.8438,37.0938 L668.8438,40.3438 L674.1094,40.3438 L674.1094,42.5 Z "/><text fill="#000000" font-family="sans-serif" font-size="12" lengthAdjust="spacingAndGlyphs" textLength="35" x="684" y="40.6543">users</text><line style="stroke: #A80036; stroke-width: 1.5;" x1="656" x2="721" y1="52.5" y2="52.5"/><ellipse cx="666" cy="63.5" fill="#000000" rx="3" ry="3" style="stroke: #000000; stroke-width: 1.0;"/><text fill="#000000" font-family="sans-serif" font-size="11" lengthAdjust="spacingAndGlyphs" textLength="41" x="675" y="66.7104">id UUID</text><text fill="#000000" font-family="sans-serif" font-size="11" lengthAdjust="spacingAndGlyphs" textLength="31" x="675" y="79.5151">email</text><line style="stroke: #A80036; stroke-width: 1.5;" x1="656" x2="721" y1="86.1094" y2="86.1094"/><!--MD5=[7cabd9a8aa1d7be81cdcab5a605d9f6c]
class accounts--><rect fill="#FEFECE" filter="url(#f1idpp7pmdzej1)" height="73.6094" id="accounts" style="stroke: #A80036; stroke-width: 1.5;" width="99" x="323" y="168"/><ellipse cx="342.05" cy="184" fill="#ADD1B2" rx="11" ry="11" style="stroke: #A80036; stroke-width: 1.0;"/><path d="M346.1594,190 L338.4406,190 L338.4406,177.6094 L346.1594,177.6094 L346.1594,179.7656 L340.8938,179.7656 L340.8938,182.4375 L345.6594,182.4375 L345.6594,184.5938 L340.8938,184.5938 L340.8938,187.8438 L346.1594,187.8438 L346.1594,190 Z "/><text fill="#000000" font-family="sans-serif" font-size="12" lengthAdjust="spacingAndGlyphs" textLength="58" x="356.95" y="188.1543">accounts</text><line style="stroke: #A80036; stroke-width: 1.5;" x1="324" x2="421" y1="200" y2="200"/><ellipse cx="334" cy="211" fill="#000000" rx="3" ry="3" style="stroke: #000000; stroke-width: 1.0;"/><text fill="#000000" font-family="sans-serif" font-size="11" lengthAdjust="spacingAndGlyphs" textLength="41" x="343" y="214.2104">id UUID</text><text fill="#000000" font-family="sans-serif" font-size="11" lengthAdjust="spacingAndGlyphs" textLength="73" x="343" y="227.0151">user_id UUID</text><line style="stroke: #A80036; stroke-width: 1.5;" x1="324" x2="421" y1="233.6094" y2="233.6094"/><!--MD5=[90e15209eff3d30ea5de479d91b6b352]
class currencies--><rect fill="#FEFECE" filter="url(#f1idpp7pmdzej1)" height="99.2188" id="currencies" style="stroke: #A80036; stroke-width: 1.5;" width="123" x="6" y="8"/><ellipse cx="32.25" cy="24" fill="#ADD1B2" rx="11" ry="11" style="stroke: #A80036; stroke-width: 1.0;"/><path d="M36.3594,30 L28.6406,30 L28.6406,17.6094 L36.3594,17.6094 L36.3594,19.7656 L31.0938,19.7656 L31.0938,22.4375 L35.8594,22.4375 L35.8594,24.5938 L31.0938,24.5938 L31.0938,27.8438 L36.3594,27.8438 L36.3594,30 Z "/><text fill="#000000" font-family="sans-serif" font-size="12" lengthAdjust="spacingAndGlyphs" textLength="66" x="48.75" y="28.1543">currencies</text><line style="stroke: #A80036; stroke-width: 1.5;" x1="7" x2="128" y1="40" y2="40"/><ellipse cx="17" cy="51" fill="#000000" rx="3" ry="3" style="stroke: #000000; stroke-width: 1.0;"/><text fill="#000000" font-family="sans-serif" font-size="11" lengthAdjust="spacingAndGlyphs" textLength="97" x="26" y="54.2104">code VARCHAR(3)</text><text fill="#000000" font-family="sans-serif" font-size="11" lengthAdjust="spacingAndGlyphs" textLength="32" x="26" y="67.0151">name</text><text fill="#000000" font-family="sans-serif" font-size="11" lengthAdjust="spacingAndGlyphs" textLength="41" x="26" y="79.8198">symbol</text><text fill="#000000" font-family="sans-serif" font-size="11" lengthAdjust="spacingAndGlyphs" textLength="52" x="26" y="92.6245">precision</text><line style="stroke: #A80036; stroke-width: 1.5;" x1="7" x2="128" y1="99.2188" y2="99.2188"/><!--MD5=[8d53228b184e70212eb202c858fab81b]
class categories--><rect fill="#FEFECE" filter="url(#f1idpp7pmdzej1)" height="99.2188" id="categories" style="stroke: #A80036; stroke-width: 1.5;" width="117" x="388" y="303"/><ellipse cx="411.1" cy="319" fill="#ADD1B2" rx="11" ry="11" style="stroke: #A80036; stroke-width: 1.0;"/><path d="M415.2094,325 L407.4906,325 L407.4906,312.6094 L415.2094,312.6094 L415.2094,314.7656 L409.9438,314.7656 L409.9438,317.4375 L414.7094,317.4375 L414.7094,319.5938 L409.9438,319.5938 L409.9438,322.8438 L415.2094,322.8438 L415.2094,325 Z "/><text fill="#000000" font-family="sans-serif" font-size="12" lengthAdjust="spacingAndGlyphs" textLength="67" x="426.9" y="323.1543">categories</text><line style="stroke: #A80036; stroke-width: 1.5;" x1="389" x2="504" y1="335" y2="335"/><ellipse cx="399" cy="346" fill="#000000" rx="3" ry="3" style="stroke: #000000; stroke-width: 1.0;"/><text fill="#000000" font-family="sans-serif" font-size="11" lengthAdjust="spacingAndGlyphs" textLength="41" x="408" y="349.2104">id UUID</text><text fill="#000000" font-family="sans-serif" font-size="11" lengthAdjust="spacingAndGlyphs" textLength="84" x="408" y="362.0151">parent_id UUID</text><text fill="#000000" font-family="sans-serif" font-size="11" lengthAdjust="spacingAndGlyphs" textLength="91" x="408" y="374.8198">account_id UUID</text><text fill="#000000" font-family="sans-serif" font-size="11" lengthAdjust="spacingAndGlyphs" textLength="73" x="408" y="387.6245">user_id UUID</text><line style="stroke: #A80036; stroke-width: 1.5;" x1="389" x2="504" y1="394.2188" y2="394.2188"/><!--MD5=[7f8e26d1a6333c7a5877a54d3f917b5b]
class transactions--><rect fill="#FEFECE" filter="url(#f1idpp7pmdzej1)" height="137.6328" id="transactions" style="stroke: #A80036; stroke-width: 1.5;" width="122" x="520.5" y="463"/><ellipse cx="540.45" cy="479" fill="#ADD1B2" rx="11" ry="11" style="stroke: #A80036; stroke-width: 1.0;"/><path d="M544.5594,485 L536.8406,485 L536.8406,472.6094 L544.5594,472.6094 L544.5594,474.7656 L539.2938,474.7656 L539.2938,477.4375 L544.0594,477.4375 L544.0594,479.5938 L539.2938,479.5938 L539.2938,482.8438 L544.5594,482.8438 L544.5594,485 Z "/><text fill="#000000" font-family="sans-serif" font-size="12" lengthAdjust="spacingAndGlyphs" textLength="79" x="555.55" y="483.1543">transactions</text><line style="stroke: #A80036; stroke-width: 1.5;" x1="521.5" x2="641.5" y1="495" y2="495"/><ellipse cx="531.5" cy="506" fill="#000000" rx="3" ry="3" style="stroke: #000000; stroke-width: 1.0;"/><text fill="#000000" font-family="sans-serif" font-size="11" lengthAdjust="spacingAndGlyphs" textLength="41" x="540.5" y="509.2104">id UUID</text><text fill="#000000" font-family="sans-serif" font-size="11" lengthAdjust="spacingAndGlyphs" textLength="73" x="540.5" y="522.0151">user_id UUID</text><text fill="#000000" font-family="sans-serif" font-size="11" lengthAdjust="spacingAndGlyphs" textLength="96" x="540.5" y="534.8198">category_id UUID</text><text fill="#000000" font-family="sans-serif" font-size="11" lengthAdjust="spacingAndGlyphs" textLength="56" x="540.5" y="547.6245">posted_at</text><text fill="#000000" font-family="sans-serif" font-size="11" lengthAdjust="spacingAndGlyphs" textLength="34" x="540.5" y="560.4292">payee</text><text fill="#000000" font-family="sans-serif" font-size="11" lengthAdjust="spacingAndGlyphs" textLength="25" x="540.5" y="573.2339">note</text><text fill="#000000" font-family="sans-serif" font-size="11" lengthAdjust="spacingAndGlyphs" textLength="62" x="540.5" y="586.0386">external_id</text><line style="stroke: #A80036; stroke-width: 1.5;" x1="521.5" x2="641.5" y1="592.6328" y2="592.6328"/><!--MD5=[cdc63da5e460ced229f4b042bef78960]
class postings--><rect fill="#FEFECE" filter="url(#f1idpp7pmdzej1)" height="86.4141" id="postings" style="stroke: #A80036; stroke-width: 1.5;" width="137" x="195" y="662"/><ellipse cx="232.95" cy="678" fill="#ADD1B2" rx="11" ry="11" style="stroke: #A80036; stroke-width: 1.0;"/><path d="M237.0594,684 L229.3406,684 L229.3406,671.6094 L237.0594,671.6094 L237.0594,673.7656 L231.7938,673.7656 L231.7938,676.4375 L236.5594,676.4375 L236.5594,678.5938 L231.7938,678.5938 L231.7938,681.8438 L237.0594,681.8438 L237.0594,684 Z "/><text fill="#000000" font-family="sans-serif" font-size="12" lengthAdjust="spacingAndGlyphs" textLength="54" x="252.05" y="682.1543">postings</text><line style="stroke: #A80036; stroke-width: 1.5;" x1="196" x2="331" y1="694" y2="694"/><ellipse cx="206" cy="705" fill="#000000" rx="3" ry="3" style="stroke: #000000; stroke-width: 1.0;"/><text fill="#000000" font-family="sans-serif" font-size="11" lengthAdjust="spacingAndGlyphs" textLength="41" x="215" y="708.2104">id UUID</text><text fill="#000000" font-family="sans-serif" font-size="11" lengthAdjust="spacingAndGlyphs" textLength="111" x="215" y="721.0151">transaction_id UUID</text><text fill="#000000" font-family="sans-serif" font-size="11" lengthAdjust="spacingAndGlyphs" textLength="91" x="215" y="733.8198">account_id UUID</text><line style="stroke: #A80036; stroke-width: 1.5;" x1="196" x2="331" y1="740.4141" y2="740.4141"/><!--MD5=[798913a9cabfe147b0aaeaac96360db2]
class goals--><rect fill="#FEFECE" filter="url(#f1idpp7pmdzej1)" height="86.4141" id="goals" style="stroke: #A80036; stroke-width: 1.5;" width="117" x="800" y="309.5"/><ellipse cx="837.95" cy="325.5" fill="#ADD1B2" rx="11" ry="11" style="stroke: #A80036; stroke-width: 1.0;"/><path d="M842.0594,331.5 L834.3406,331.5 L834.3406,319.1094 L842.0594,319.1094 L842.0594,321.2656 L836.7938,321.2656 L836.7938,323.9375 L841.5594,323.9375 L841.5594,326.0938 L836.7938,326.0938 L836.7938,329.3438 L842.0594,329.3438 L842.0594,331.5 Z "/><text fill="#000000" font-family="sans-serif" font-size="12" lengthAdjust="spacingAndGlyphs" textLength="34" x="857.05" y="329.6543">goals</text><line style="stroke: #A80036; stroke-width: 1.5;" x1="801" x2="916" y1="341.5" y2="341.5"/><ellipse cx="811" cy="352.5" fill="#000000" rx="3" ry="3" style="stroke: #000000; stroke-width: 1.0;"/><text fill="#000000" font-family="sans-serif" font-size="11" lengthAdjust="spacingAndGlyphs" textLength="41" x="820" y="355.7104">id UUID</text><text fill="#000000" font-family="sans-serif" font-size="11" lengthAdjust="spacingAndGlyphs" textLength="91" x="820" y="368.5151">account_id UUID</text><text fill="#000000" font-family="sans-serif" font-size="11" lengthAdjust="spacingAndGlyphs" textLength="73" x="820" y="381.3198">user_id UUID</text><line style="stroke: #A80036; stroke-width: 1.5;" x1="801" x2="916" y1="387.9141" y2="387.9141"/><!--MD5=[852ef840353f6214332b76e489a98c80]
class recurring_payments--><rect fill="#FEFECE" filter="url(#f1idpp7pmdzej1)" height="99.2188" id="recurring_payments" style="stroke: #A80036; stroke-width: 1.5;" width="156" x="329.5" y="482.5"/><ellipse cx="344.5" cy="498.5" fill="#ADD1B2" rx="11" ry="11" style="stroke: #A80036; stroke-width: 1.0;"/><path d="M348.6094,504.5 L340.8906,504.5 L340.8906,492.1094 L348.6094,492.1094 L348.6094,494.2656 L343.3438,494.2656 L343.3438,496.9375 L348.1094,496.9375 L348.1094,499.0938 L343.3438,499.0938 L343.3438,502.3438 L348.6094,502.3438 L348.6094,504.5 Z "/><text fill="#000000" font-family="sans-serif" font-size="12" lengthAdjust="spacingAndGlyphs" textLength="124" x="358.5" y="502.6543">recurring_payments</text><line style="stroke: #A80036; stroke-width: 1.5;" x1="330.5" x2="484.5" y1="514.5" y2="514.5"/><ellipse cx="340.5" cy="525.5" fill="#000000" rx="3" ry="3" style="stroke: #000000; stroke-width: 1.0;"/><text fill="#000000" font-family="sans-serif" font-size="11" lengthAdjust="spacingAndGlyphs" textLength="41" x="349.5" y="528.7104">id UUID</text><text fill="#000000" font-family="sans-serif" font-size="11" lengthAdjust="spacingAndGlyphs" textLength="96" x="349.5" y="541.5151">category_id UUID</text><text fill="#000000" font-family="sans-serif" font-size="11" lengthAdjust="spacingAndGlyphs" textLength="91" x="349.5" y="554.3198">account_id UUID</text><text fill="#000000" font-family="sans-serif" font-size="11" lengthAdjust="spacingAndGlyphs" textLength="73" x="349.5" y="567.1245">user_id UUID</text><line style="stroke: #A80036; stroke-width: 1.5;" x1="330.5" x2="484.5" y1="573.7188" y2="573.7188"/><!--MD5=[18743fb8d3d536581ff82c272a7798ac]
class bank_tokens--><rect fill="#FEFECE" filter="url(#f1idpp7pmdzej1)" height="86.4141" id="bank_tokens" style="stroke: #A80036; stroke-width: 1.5;" width="117" x="93" y="309.5"/><ellipse cx="110.25" cy="325.5" fill="#ADD1B2" rx="11" ry="11" style="stroke: #A80036; stroke-width: 1.0;"/><path d="M114.3594,331.5 L106.6406,331.5 L106.6406,319.1094 L114.3594,319.1094 L114.3594,321.2656 L109.0938,321.2656 L109.0938,323.9375 L113.8594,323.9375 L113.8594,326.0938 L109.0938,326.0938 L109.0938,329.3438 L114.3594,329.3438 L114.3594,331.5 Z "/><text fill="#000000" font-family="sans-serif" font-size="12" lengthAdjust="spacingAndGlyphs" textLength="80" x="124.75" y="329.6543">bank_tokens</text><line style="stroke: #A80036; stroke-width: 1.5;" x1="94" x2="209" y1="341.5" y2="341.5"/><ellipse cx="104" cy="352.5" fill="#000000" rx="3" ry="3" style="stroke: #000000; stroke-width: 1.0;"/><text fill="#000000" font-family="sans-serif" font-size="11" lengthAdjust="spacingAndGlyphs" textLength="41" x="113" y="355.7104">id UUID</text><text fill="#000000" font-family="sans-serif" font-size="11" lengthAdjust="spacingAndGlyphs" textLength="91" x="113" y="368.5151">account_id UUID</text><text fill="#000000" font-family="sans-serif" font-size="11" lengthAdjust="spacingAndGlyphs" textLength="73" x="113" y="381.3198">user_id UUID</text><line style="stroke: #A80036; stroke-width: 1.5;" x1="94" x2="209" y1="387.9141" y2="387.9141"/><!--MD5=[e4adc624c89a64a172b95447f5c55c11]
class push_subscriptions--><rect fill="#FEFECE" filter="url(#f1idpp7pmdzej1)" height="86.4141" id="push_subscriptions" style="stroke: #A80036; stroke-width: 1.5;" width="153" x="612" y="309.5"/><ellipse cx="627" cy="325.5" fill="#ADD1B2" rx="11" ry="11" style="stroke: #A80036; stroke-width: 1.0;"/><path d="M631.1094,331.5 L623.3906,331.5 L623.3906,319.1094 L631.1094,319.1094 L631.1094,321.2656 L625.8438,321.2656 L625.8438,323.9375 L630.6094,323.9375 L630.6094,326.0938 L625.8438,326.0938 L625.8438,329.3438 L631.1094,329.3438 L631.1094,331.5 Z "/><text fill="#000000" font-family="sans-serif" font-size="12" lengthAdjust="spacingAndGlyphs" textLength="121" x="641" y="329.6543">push_subscriptions</text><line style="stroke: #A80036; stroke-width: 1.5;" x1="613" x2="764" y1="341.5" y2="341.5"/><ellipse cx="623" cy="352.5" fill="#000000" rx="3" ry="3" style="stroke: #000000; stroke-width: 1.0;"/><text fill="#000000" font-family="sans-serif" font-size="11" lengthAdjust="spacingAndGlyphs" textLength="41" x="632" y="355.7104">id UUID</text><text fill="#000000" font-family="sans-serif" font-size="11" lengthAdjust="spacingAndGlyphs" textLength="91" x="632" y="368.5151">account_id UUID</text><text fill="#000000" font-family="sans-serif" font-size="11" lengthAdjust="spacingAndGlyphs" textLength="73" x="632" y="381.3198">user_id UUID</text><line style="stroke: #A80036; stroke-width: 1.5;" x1="613" x2="764" y1="387.9141" y2="387.9141"/><!--MD5=[167a2d055c685a3d3b314b3b1bbb93f4]
link users to accounts--><path d="M647.49,77.38 C591.94,102.96 492.52,148.74 429.67,177.68 " fill="none" id="users-accounts" style="stroke: #A80036; stroke-width: 1.0;"/><line style="stroke: #A80036; stroke-width: 1.0;" x1="429.4587" x2="424.6962" y1="177.7784" y2="186.5715"/><line style="stroke: #A80036; stroke-width: 1.0;" x1="429.4587" x2="419.6838" y1="177.7784" y2="175.6685"/><line style="stroke: #A80036; stroke-width: 1.0;" x1="429.4587" x2="422.19" y1="177.7784" y2="181.12"/><ellipse cx="434.9102" cy="175.2722" fill="none" rx="4" ry="4" style="stroke: #A80036; stroke-width: 1.0;"/><line style="stroke: #A80036; stroke-width: 1.0;" x1="649.6702" x2="653.029" y1="71.979" y2="79.2398"/><line style="stroke: #A80036; stroke-width: 1.0;" x1="646.9474" x2="650.3063" y1="73.2386" y2="80.4993"/><line style="stroke: #A80036; stroke-width: 1.0;" x1="647.7193" x2="654.98" y1="77.2888" y2="73.93"/><!--MD5=[f010663284c4bf842ebd56b6f42bea4e]
link users to categories--><path d="M653.34,101.07 C610.69,152.71 538.7,239.87 491.9,296.54 " fill="none" id="users-categories" style="stroke: #A80036; stroke-width: 1.0;"/><line style="stroke: #A80036; stroke-width: 1.0;" x1="491.6947" x2="491.226" y1="296.782" y2="306.771"/><line style="stroke: #A80036; stroke-width: 1.0;" x1="491.6947" x2="481.974" y1="296.782" y2="299.129"/><line style="stroke: #A80036; stroke-width: 1.0;" x1="491.6947" x2="486.6" y1="296.782" y2="302.95"/><ellipse cx="495.5157" cy="292.156" fill="none" rx="4" ry="4" style="stroke: #A80036; stroke-width: 1.0;"/><line style="stroke: #A80036; stroke-width: 1.0;" x1="652.9493" x2="659.1231" y1="95.2631" y2="100.3507"/><line style="stroke: #A80036; stroke-width: 1.0;" x1="651.0414" x2="657.2152" y1="97.5782" y2="102.6659"/><line style="stroke: #A80036; stroke-width: 1.0;" x1="653.4923" x2="658.58" y1="100.8938" y2="94.72"/><!--MD5=[2a9c393571ed33840c21dbba032d0f66]
link users to transactions--><path d="M730.24,62.89 C806.6,71.87 963.95,95.12 996.5,137 C1077.22,240.88 1078.14,329.84 996.5,433 C954.13,486.54 757.39,513.8 650.71,524.86 " fill="none" id="users-transactions" style="stroke: #A80036; stroke-width: 1.0;"/><line style="stroke: #A80036; stroke-width: 1.0;" x1="650.5184" x2="643.1708" y1="524.8756" y2="531.6588"/><line style="stroke: #A80036; stroke-width: 1.0;" x1="650.5184" x2="641.9492" y1="524.8756" y2="519.7212"/><line style="stroke: #A80036; stroke-width: 1.0;" x1="650.5184" x2="642.56" y1="524.8756" y2="525.69"/><ellipse cx="656.4873" cy="524.2648" fill="none" rx="4" ry="4" style="stroke: #A80036; stroke-width: 1.0;"/><line style="stroke: #A80036; stroke-width: 1.0;" x1="725.7363" x2="726.6512" y1="66.3912" y2="58.4437"/><line style="stroke: #A80036; stroke-width: 1.0;" x1="728.7167" x2="729.6315" y1="66.7342" y2="58.7867"/><line style="stroke: #A80036; stroke-width: 1.0;" x1="730.1675" x2="722.22" y1="62.8748" y2="61.96"/><!--MD5=[266e1d6a9ffcebe83ebd5de9a38db3f7]
link users to goals--><path d="M713.53,101.65 C744.56,155.12 797.3,246.02 829.89,302.2 " fill="none" id="users-goals" style="stroke: #A80036; stroke-width: 1.0;"/><line style="stroke: #A80036; stroke-width: 1.0;" x1="829.9495" x2="839.1516" y1="302.2879" y2="306.2021"/><line style="stroke: #A80036; stroke-width: 1.0;" x1="829.9495" x2="828.7684" y1="302.2879" y2="312.2179"/><line style="stroke: #A80036; stroke-width: 1.0;" x1="829.9495" x2="833.96" y1="302.2879" y2="309.21"/><ellipse cx="826.9416" cy="297.0963" fill="none" rx="4" ry="4" style="stroke: #A80036; stroke-width: 1.0;"/><line style="stroke: #A80036; stroke-width: 1.0;" x1="708.0691" x2="714.9876" y1="100.1876" y2="96.1709"/><line style="stroke: #A80036; stroke-width: 1.0;" x1="709.5754" x2="716.4939" y1="102.7821" y2="98.7653"/><line style="stroke: #A80036; stroke-width: 1.0;" x1="713.5367" x2="709.52" y1="101.6385" y2="94.72"/><!--MD5=[9e23e7160a8b22778c86b3eb8dfffc21]
link users to recurring_payments--><path d="M729.04,82.57 C821.34,140.24 1031.9,289.88 934.5,402 C870.92,475.19 592.51,426.97 502.5,463 C492.5,467 482.56,472.27 473.09,478.11 " fill="none" id="users-recurring_payments" style="stroke: #A80036; stroke-width: 1.0;"/><line style="stroke: #A80036; stroke-width: 1.0;" x1="473.0252" x2="469.5061" y1="478.1485" y2="487.5089"/><line style="stroke: #A80036; stroke-width: 1.0;" x1="473.0252" x2="463.0539" y1="478.1485" y2="477.3911"/><line style="stroke: #A80036; stroke-width: 1.0;" x1="473.0252" x2="466.28" y1="478.1485" y2="482.45"/><ellipse cx="478.084" cy="474.9224" fill="none" rx="4" ry="4" style="stroke: #A80036; stroke-width: 1.0;"/><line style="stroke: #A80036; stroke-width: 1.0;" x1="723.3629" x2="727.5771" y1="83.7571" y2="76.9571"/><line style="stroke: #A80036; stroke-width: 1.0;" x1="725.9129" x2="730.1271" y1="85.3375" y2="78.5375"/><line style="stroke: #A80036; stroke-width: 1.0;" x1="728.87" x2="722.07" y1="82.4643" y2="78.25"/><!--MD5=[bfc8bc54d589606411dbe51d51d88b4e]
link users to bank_tokens--><path d="M646.59,62.4 C572.4,70.96 415.41,96.69 305.5,168 C252.45,202.42 208.1,260.67 180.82,302.32 " fill="none" id="users-bank_tokens" style="stroke: #A80036; stroke-width: 1.0;"/><line style="stroke: #A80036; stroke-width: 1.0;" x1="180.7849" x2="181.4631" y1="302.3992" y2="312.3762"/><line style="stroke: #A80036; stroke-width: 1.0;" x1="180.7849" x2="171.3969" y1="302.3992" y2="305.8438"/><line style="stroke: #A80036; stroke-width: 1.0;" x1="180.7849" x2="176.43" y1="302.3992" y2="309.11"/><ellipse cx="184.0511" cy="297.3661" fill="none" rx="4" ry="4" style="stroke: #A80036; stroke-width: 1.0;"/><line style="stroke: #A80036; stroke-width: 1.0;" x1="650.372" x2="651.2571" y1="57.9471" y2="65.898"/><line style="stroke: #A80036; stroke-width: 1.0;" x1="647.3905" x2="648.2755" y1="58.2789" y2="66.2298"/><line style="stroke: #A80036; stroke-width: 1.0;" x1="646.8391" x2="654.79" y1="62.365" y2="61.48"/><!--MD5=[0bd88d8a2decbb38bb67e1a18860fc4d]
link users to push_subscriptions--><path d="M688.5,103.02 C688.5,156.24 688.5,245.1 688.5,300.89 " fill="none" id="users-push_subscriptions" style="stroke: #A80036; stroke-width: 1.0;"/><line style="stroke: #A80036; stroke-width: 1.0;" x1="688.5" x2="694.5" y1="301.21" y2="309.21"/><line style="stroke: #A80036; stroke-width: 1.0;" x1="688.5" x2="682.5" y1="301.21" y2="309.21"/><line style="stroke: #A80036; stroke-width: 1.0;" x1="688.5" x2="688.5" y1="301.21" y2="309.21"/><ellipse cx="688.5" cy="295.21" fill="none" rx="4" ry="4" style="stroke: #A80036; stroke-width: 1.0;"/><line style="stroke: #A80036; stroke-width: 1.0;" x1="684.5" x2="692.5" y1="98.72" y2="98.72"/><line style="stroke: #A80036; stroke-width: 1.0;" x1="684.5" x2="692.5" y1="101.72" y2="101.72"/><line style="stroke: #A80036; stroke-width: 1.0;" x1="688.5" x2="688.5" y1="102.72" y2="94.72"/><!--MD5=[9a9c414d96f242261be3321d12c71bd9]
link accounts to categories--><path d="M394.79,249.82 C402.08,264.16 410.28,280.29 417.97,295.41 " fill="none" id="accounts-categories" style="stroke: #A80036; stroke-width: 1.0;"/><line style="stroke: #A80036; stroke-width: 1.0;" x1="418.0823" x2="427.0515" y1="295.6047" y2="300.0267"/><line style="stroke: #A80036; stroke-width: 1.0;" x1="418.0823" x2="416.3485" y1="295.6047" y2="305.4533"/><line style="stroke: #A80036; stroke-width: 1.0;" x1="418.0823" x2="421.7" y1="295.6047" y2="302.74"/><ellipse cx="415.369" cy="290.2532" fill="none" rx="4" ry="4" style="stroke: #A80036; stroke-width: 1.0;"/><line style="stroke: #A80036; stroke-width: 1.0;" x1="389.2298" x2="396.3593" y1="247.7193" y2="244.0902"/><line style="stroke: #A80036; stroke-width: 1.0;" x1="390.5907" x2="397.7202" y1="250.3929" y2="246.7638"/><line style="stroke: #A80036; stroke-width: 1.0;" x1="394.6091" x2="390.98" y1="249.4695" y2="242.34"/><!--MD5=[f2054f1200fa470614089166ac441499]
link accounts to goals--><path d="M430.25,213.42 C511.4,225.23 662.66,252.31 782.5,303 C785.83,304.41 789.19,305.96 792.52,307.62 " fill="none" id="accounts-goals" style="stroke: #A80036; stroke-width: 1.0;"/><line style="stroke: #A80036; stroke-width: 1.0;" x1="792.6997" x2="802.5644" y1="307.7041" y2="306.0648"/><line style="stroke: #A80036; stroke-width: 1.0;" x1="792.6997" x2="797.0356" y1="307.7041" y2="316.7152"/><line style="stroke: #A80036; stroke-width: 1.0;" x1="792.6997" x2="799.8" y1="307.7041" y2="311.39"/><ellipse cx="787.3745" cy="304.9397" fill="none" rx="4" ry="4" style="stroke: #A80036; stroke-width: 1.0;"/><line style="stroke: #A80036; stroke-width: 1.0;" x1="425.5364" x2="426.6638" y1="216.7838" y2="208.8636"/><line style="stroke: #A80036; stroke-width: 1.0;" x1="428.5065" x2="429.6338" y1="217.2065" y2="209.2864"/><line style="stroke: #A80036; stroke-width: 1.0;" x1="430.0602" x2="422.14" y1="213.3874" y2="212.26"/><!--MD5=[b9e8cc149ad88d0212c132e1788c3a0d]
link accounts to recurring_payments--><path d="M371.38,250.75 C371.03,267.18 370.68,285.93 370.5,303 C370.05,347 364.37,358.43 370.5,402 C373.91,426.25 380.76,452.33 387.64,474.66 " fill="none" id="accounts-recurring_payments" style="stroke: #A80036; stroke-width: 1.0;"/><line style="stroke: #A80036; stroke-width: 1.0;" x1="387.6662" x2="395.8004" y1="474.7629" y2="480.5796"/><line style="stroke: #A80036; stroke-width: 1.0;" x1="387.6662" x2="384.3596" y1="474.7629" y2="484.2004"/><line style="stroke: #A80036; stroke-width: 1.0;" x1="387.6662" x2="390.08" y1="474.7629" y2="482.39"/><ellipse cx="385.8558" cy="469.0425" fill="none" rx="4" ry="4" style="stroke: #A80036; stroke-width: 1.0;"/><line style="stroke: #A80036; stroke-width: 1.0;" x1="367.4782" x2="375.4761" y1="246.2961" y2="246.4818"/><line style="stroke: #A80036; stroke-width: 1.0;" x1="367.4086" x2="375.4065" y1="249.2953" y2="249.4809"/><line style="stroke: #A80036; stroke-width: 1.0;" x1="371.3843" x2="371.57" y1="250.3878" y2="242.39"/><!--MD5=[653db1a50ce928aa9e3b12a43ba138e3]
link accounts to bank_tokens--><path d="M315.24,229.51 C290.42,240.82 261.59,255.5 237.5,272 C223.95,281.28 210.39,292.62 198.17,303.79 " fill="none" id="accounts-bank_tokens" style="stroke: #A80036; stroke-width: 1.0;"/><line style="stroke: #A80036; stroke-width: 1.0;" x1="198.1469" x2="196.359" y1="303.8213" y2="313.6602"/><line style="stroke: #A80036; stroke-width: 1.0;" x1="198.1469" x2="188.201" y1="303.8213" y2="304.8598"/><line style="stroke: #A80036; stroke-width: 1.0;" x1="198.1469" x2="192.28" y1="303.8213" y2="309.26"/><ellipse cx="202.5471" cy="299.7423" fill="none" rx="4" ry="4" style="stroke: #A80036; stroke-width: 1.0;"/><line style="stroke: #A80036; stroke-width: 1.0;" x1="317.5207" x2="320.8042" y1="224.1042" y2="231.3993"/><line style="stroke: #A80036; stroke-width: 1.0;" x1="314.785" x2="318.0685" y1="225.3355" y2="232.6306"/><line style="stroke: #A80036; stroke-width: 1.0;" x1="315.5149" x2="322.81" y1="229.3935" y2="226.11"/><!--MD5=[042cf30179a72658c9745d91cb45a78f]
link accounts to push_subscriptions--><path d="M429.92,229.89 C475.01,248.94 539.21,276.69 594.5,303 C597.76,304.55 601.07,306.15 604.41,307.78 " fill="none" id="accounts-push_subscriptions" style="stroke: #A80036; stroke-width: 1.0;"/><line style="stroke: #A80036; stroke-width: 1.0;" x1="604.5719" x2="614.3989" y1="307.8581" y2="306.0064"/><line style="stroke: #A80036; stroke-width: 1.0;" x1="604.5719" x2="609.1011" y1="307.8581" y2="316.7736"/><line style="stroke: #A80036; stroke-width: 1.0;" x1="604.5719" x2="611.75" y1="307.8581" y2="311.39"/><ellipse cx="599.1882" cy="305.2092" fill="none" rx="4" ry="4" style="stroke: #A80036; stroke-width: 1.0;"/><line style="stroke: #A80036; stroke-width: 1.0;" x1="424.418" x2="427.5314" y1="231.9114" y2="224.542"/><line style="stroke: #A80036; stroke-width: 1.0;" x1="427.1815" x2="430.2948" y1="233.0789" y2="225.7096"/><line style="stroke: #A80036; stroke-width: 1.0;" x1="429.6593" x2="422.29" y1="229.7834" y2="226.67"/><!--MD5=[5b0b314981474efc84e05702d78ec915]
link accounts to postings--><path d="M361.55,249.97 C348.94,301.05 327.88,387.94 311.5,463 C297.16,528.74 282.27,604.95 272.95,653.78 " fill="none" id="accounts-postings" style="stroke: #A80036; stroke-width: 1.0;"/><line style="stroke: #A80036; stroke-width: 1.0;" x1="272.9502" x2="277.3436" y1="653.8119" y2="662.7951"/><line style="stroke: #A80036; stroke-width: 1.0;" x1="272.9502" x2="265.5564" y1="653.8119" y2="660.5449"/><line style="stroke: #A80036; stroke-width: 1.0;" x1="272.9502" x2="271.45" y1="653.8119" y2="661.67"/><ellipse cx="274.0753" cy="647.9184" fill="none" rx="4" ry="4" style="stroke: #A80036; stroke-width: 1.0;"/><line style="stroke: #A80036; stroke-width: 1.0;" x1="358.6594" x2="366.4272" y1="245.0072" y2="246.9206"/><line style="stroke: #A80036; stroke-width: 1.0;" x1="357.9419" x2="365.7097" y1="247.9201" y2="249.8335"/><line style="stroke: #A80036; stroke-width: 1.0;" x1="361.5866" x2="363.5" y1="249.8478" y2="242.08"/><!--MD5=[7f88076dbd82ac00fdb950565966deef]
link currencies to accounts--><path d="M136.72,91.52 C190.8,117.32 265.02,152.73 315.65,176.88 " fill="none" id="currencies-accounts" style="stroke: #A80036; stroke-width: 1.0;"/><line style="stroke: #A80036; stroke-width: 1.0;" x1="315.73" x2="325.5342" y1="176.9144" y2="174.945"/><line style="stroke: #A80036; stroke-width: 1.0;" x1="315.73" x2="320.3658" y1="176.9144" y2="185.775"/><line style="stroke: #A80036; stroke-width: 1.0;" x1="315.73" x2="322.95" y1="176.9144" y2="180.36"/><ellipse cx="310.315" cy="174.3302" fill="none" rx="4" ry="4" style="stroke: #A80036; stroke-width: 1.0;"/><line style="stroke: #A80036; stroke-width: 1.0;" x1="131.1113" x2="134.5513" y1="93.2713" y2="86.0487"/><line style="stroke: #A80036; stroke-width: 1.0;" x1="133.8198" x2="137.2598" y1="94.5613" y2="87.3387"/><line style="stroke: #A80036; stroke-width: 1.0;" x1="136.4426" x2="129.22" y1="91.38" y2="87.94"/><!--MD5=[737016cd1a47a81ed54ddd83ffba2f13]
link currencies to postings--><path d="M51.39,115.31 C45.16,142 39.5,174.39 39.5,204 C39.5,204 39.5,204 39.5,533 C39.5,609.05 122.07,655.79 186.95,680.77 " fill="none" id="currencies-postings" style="stroke: #A80036; stroke-width: 1.0;"/><line style="stroke: #A80036; stroke-width: 1.0;" x1="187.2817" x2="196.8814" y1="680.8947" y2="678.0938"/><line style="stroke: #A80036; stroke-width: 1.0;" x1="187.2817" x2="192.6586" y1="680.8947" y2="689.3262"/><line style="stroke: #A80036; stroke-width: 1.0;" x1="187.2817" x2="194.77" y1="680.8947" y2="683.71"/><ellipse cx="181.6655" cy="678.7833" fill="none" rx="4" ry="4" style="stroke: #A80036; stroke-width: 1.0;"/><line style="stroke: #A80036; stroke-width: 1.0;" x1="48.5159" x2="56.2944" y1="110.1744" y2="112.0441"/><line style="stroke: #A80036; stroke-width: 1.0;" x1="47.8148" x2="55.5933" y1="113.0913" y2="114.961"/><line style="stroke: #A80036; stroke-width: 1.0;" x1="51.4703" x2="53.34" y1="114.9985" y2="107.22"/><!--MD5=[90ba14ac750edd38a8bf30655a65d272]
link categories to transactions--><path d="M488.5,408.72 C499.92,423.74 512.48,440.25 524.58,456.16 " fill="none" id="categories-transactions" style="stroke: #A80036; stroke-width: 1.0;"/><line style="stroke: #A80036; stroke-width: 1.0;" x1="524.8821" x2="534.5028" y1="456.5662" y2="459.2941"/><line style="stroke: #A80036; stroke-width: 1.0;" x1="524.8821" x2="524.9572" y1="456.5662" y2="466.5659"/><line style="stroke: #A80036; stroke-width: 1.0;" x1="524.8821" x2="529.73" y1="456.5662" y2="462.93"/><ellipse cx="521.2461" cy="451.7934" fill="none" rx="4" ry="4" style="stroke: #A80036; stroke-width: 1.0;"/><line style="stroke: #A80036; stroke-width: 1.0;" x1="482.626" x2="488.995" y1="407.605" y2="402.764"/><line style="stroke: #A80036; stroke-width: 1.0;" x1="484.4414" x2="490.8104" y1="409.9934" y2="405.1524"/><line style="stroke: #A80036; stroke-width: 1.0;" x1="488.231" x2="483.39" y1="408.369" y2="402"/><!--MD5=[8319dccea61d66404f6e7f209ac2a94e]
link categories to recurring_payments--><path d="M434.07,410.06 C429.57,430.56 424.48,453.71 419.97,474.23 " fill="none" id="categories-recurring_payments" style="stroke: #A80036; stroke-width: 1.0;"/><line style="stroke: #A80036; stroke-width: 1.0;" x1="419.9379" x2="424.0684" y1="474.4388" y2="483.5459"/><line style="stroke: #A80036; stroke-width: 1.0;" x1="419.9379" x2="412.3516" y1="474.4388" y2="480.9541"/><line style="stroke: #A80036; stroke-width: 1.0;" x1="419.9379" x2="418.21" y1="474.4388" y2="482.25"/><ellipse cx="421.2338" cy="468.5804" fill="none" rx="4" ry="4" style="stroke: #A80036; stroke-width: 1.0;"/><line style="stroke: #A80036; stroke-width: 1.0;" x1="431.0758" x2="438.89" y1="405.05" y2="406.7642"/><line style="stroke: #A80036; stroke-width: 1.0;" x1="430.4329" x2="438.2471" y1="407.9803" y2="409.6945"/><line style="stroke: #A80036; stroke-width: 1.0;" x1="434.1257" x2="435.84" y1="409.8142" y2="402"/><!--MD5=[2ae1c003342637be34353522cbdeecba]
link categories to categories--><path d="M513.68,337.86 C528.88,339.17 540,344.05 540,352.5 C540,360.95 528.88,365.83 513.68,367.14 " fill="none" id="categories-categories" style="stroke: #A80036; stroke-width: 1.0;"/><line style="stroke: #A80036; stroke-width: 1.0;" x1="513.382" x2="505.6576" y1="367.1432" y2="373.494"/><line style="stroke: #A80036; stroke-width: 1.0;" x1="513.382" x2="505.1224" y1="367.1432" y2="361.506"/><line style="stroke: #A80036; stroke-width: 1.0;" x1="513.382" x2="505.39" y1="367.1432" y2="367.5"/><ellipse cx="519.3761" cy="366.8756" fill="none" rx="4" ry="4" style="stroke: #A80036; stroke-width: 1.0;"/><line style="stroke: #A80036; stroke-width: 1.0;" x1="509.2076" x2="509.5644" y1="341.6744" y2="333.6824"/><line style="stroke: #A80036; stroke-width: 1.0;" x1="512.2046" x2="512.5614" y1="341.8082" y2="333.8162"/><line style="stroke: #A80036; stroke-width: 1.0;" x1="513.382" x2="505.39" y1="337.8568" y2="337.5"/><text fill="#000000" font-family="sans-serif" font-size="13" lengthAdjust="spacingAndGlyphs" textLength="42" x="546" y="357.0669">parent</text><!--MD5=[5749d23187a88012cc1ad27651801fdb]
link transactions to postings--><path d="M513.7,593.52 C509.98,596.15 506.24,598.66 502.5,601 C451.23,633.06 388.24,659.75 339.8,677.92 " fill="none" id="transactions-postings" style="stroke: #A80036; stroke-width: 1.0;"/><line style="stroke: #A80036; stroke-width: 1.0;" x1="339.6594" x2="334.2491" y1="677.9845" y2="686.3946"/><line style="stroke: #A80036; stroke-width: 1.0;" x1="339.6594" x2="330.0709" y1="677.9845" y2="675.1454"/><line style="stroke: #A80036; stroke-width: 1.0;" x1="339.6594" x2="332.16" y1="677.9845" y2="680.77"/><ellipse cx="345.284" cy="675.8954" fill="none" rx="4" ry="4" style="stroke: #A80036; stroke-width: 1.0;"/><line style="stroke: #A80036; stroke-width: 1.0;" x1="514.7517" x2="519.4621" y1="587.8021" y2="594.2683"/><line style="stroke: #A80036; stroke-width: 1.0;" x1="512.3269" x2="517.0373" y1="589.5686" y2="596.0347"/><line style="stroke: #A80036; stroke-width: 1.0;" x1="513.8738" x2="520.34" y1="593.3905" y2="588.68"/><!--MD5=[f86ecd6d1106c99429755a8a625e55ab]
@startuml
entity users {
  *id UUID
  email
}
entity accounts {
  *id UUID
  user_id UUID
}
entity currencies {
  *code VARCHAR(3)
  name
  symbol
  precision
}
entity categories {
  *id UUID
  parent_id UUID
  account_id UUID
  user_id UUID
}
entity transactions {
  *id UUID
  user_id UUID
  category_id UUID
  posted_at
  payee
  note
  external_id
}
entity postings {
  *id UUID
  transaction_id UUID
  account_id UUID
}
entity goals {
  *id UUID
  account_id UUID
  user_id UUID
}
entity recurring_payments {
  *id UUID
  category_id UUID
  account_id UUID
  user_id UUID
}
entity bank_tokens {
  *id UUID
  account_id UUID
  user_id UUID
}
entity push_subscriptions {
  *id UUID
  account_id UUID
  user_id UUID
}

users ||- -o{ accounts
users ||- -o{ categories
users ||- -o{ transactions
users ||- -o{ goals
users ||- -o{ recurring_payments
users ||- -o{ bank_tokens
users ||- -o{ push_subscriptions
accounts ||- -o{ categories
accounts ||- -o{ goals
accounts ||- -o{ recurring_payments
accounts ||- -o{ bank_tokens
accounts ||- -o{ push_subscriptions
accounts ||- -o{ postings
currencies ||- -o{ accounts
currencies ||- -o{ postings
categories ||- -o{ transactions
categories ||- -o{ recurring_payments
categories ||- -o{ categories : parent
transactions ||- -o{ postings
@enduml

PlantUML version 1.2020.02(Sun Mar 01 10:22:07 UTC 2020)
(GPL source distribution)
Java Runtime: OpenJDK Runtime Environment
JVM: OpenJDK 64-Bit Server VM
Java Version: 21.0.7+6-Ubuntu-0ubuntu124.04
Operating System: Linux
Default Encoding: UTF-8
Language: en
Country: null
--></g></svg>
